# Blender v2.79 (sub 0) OBJ File: 'othello.blend'
# www.blender.org
mtllib othello_board.mtl
o Plane_Plane.001
v -0.934012 0.000000 0.934012
v 0.934012 0.000000 0.934012
v -0.934012 0.000000 -0.934012
v 0.934012 0.000000 -0.934012
v -1.011094 -0.016641 0.988223
v -0.988223 -0.016641 1.011094
v -0.980000 0.000000 0.980000
v 0.988223 -0.016641 1.011094
v 1.011094 -0.016641 0.988223
v 0.980000 0.000000 0.980000
v -1.011094 -0.016641 -0.988223
v -0.980000 0.000000 -0.980000
v -0.988223 -0.016641 -1.011094
v 1.011094 -0.016641 -0.988223
v 0.988223 -0.016641 -1.011094
v 0.980000 0.000000 -0.980000
v -1.177129 -0.300000 1.200000
v -1.200000 -0.300000 1.177129
v 1.200000 -0.300000 1.177129
v 1.177129 -0.300000 1.200000
v -1.200000 -0.300000 -1.177129
v -1.177129 -0.300000 -1.200000
v 1.177129 -0.300000 -1.200000
v 1.200000 -0.300000 -1.177129
vn 0.0000 1.0000 0.0000
vn 0.0000 0.5547 -0.8321
vn 0.0000 0.5547 0.8321
vn 0.8321 0.5547 0.0000
vn -0.3632 0.8580 0.3632
vn 0.3632 0.8580 0.3632
vn -0.3632 0.8580 -0.3632
vn 0.3632 0.8580 -0.3632
vn -0.4719 0.8817 -0.0000
vn 0.0000 0.8817 0.4719
vn 0.4719 0.8817 0.0000
vn 0.0000 0.8817 -0.4719
vn -0.5145 0.6860 -0.5145
vn -0.5145 0.6860 0.5145
vn 0.5145 0.6860 -0.5145
vn 0.5145 0.6860 0.5145
vn -0.8321 0.5547 0.0000
vn 0.8320 0.5547 0.0000
vn -0.8320 0.5547 0.0000
usemtl green-board
s off
f 2//1 3//1 1//1
f 2//1 4//1 3//1
usemtl black-board
f 15//2 22//2 13//2
f 6//3 20//3 8//3
f 7//1 3//1 12//1
f 10//1 1//1 7//1
f 12//1 4//1 16//1
f 9//4 24//4 14//4
f 16//1 2//1 10//1
f 5//5 6//5 7//5
f 8//6 9//6 10//6
f 11//7 12//7 13//7
f 14//8 15//8 16//8
f 5//9 12//9 11//9
f 8//10 7//10 6//10
f 14//11 10//11 9//11
f 13//12 16//12 15//12
f 13//13 21//13 11//13
f 6//14 18//14 17//14
f 14//15 23//15 15//15
f 19//16 8//16 20//16
f 11//17 18//17 5//17
f 15//2 23//2 22//2
f 6//3 17//3 20//3
f 7//1 1//1 3//1
f 10//1 2//1 1//1
f 12//1 3//1 4//1
f 9//18 19//18 24//18
f 16//1 4//1 2//1
f 5//9 7//9 12//9
f 8//10 10//10 7//10
f 14//11 16//11 10//11
f 13//12 12//12 16//12
f 13//13 22//13 21//13
f 6//14 5//14 18//14
f 14//15 24//15 23//15
f 19//16 9//16 8//16
f 11//19 21//19 18//19
